<svg width="16" height="133" fill="none" xmlns="http://www.w3.org/2000/svg"><path fill="#1A5A4C" d="M7 63h1v70H7z"/><path d="M3.228 41.922v-7.77H13v2.128H5.118v3.514H13v2.128H3.228Zm9.94-13.846c0 .644-.107 1.232-.322 1.764a3.586 3.586 0 0 1-.952 1.358c-.43.374-.957.663-1.582.868-.635.206-1.367.308-2.198.308-.83 0-1.559-.102-2.184-.308-.635-.205-1.162-.494-1.582-.868a3.519 3.519 0 0 1-.966-1.358 4.673 4.673 0 0 1-.322-1.764c0-.644.107-1.232.322-1.764a3.52 3.52 0 0 1 .966-1.358c.42-.373.947-.662 1.582-.868.625-.205 1.353-.308 2.184-.308.83 0 1.563.103 2.198.308.625.206 1.153.495 1.582.868.42.374.737.826.952 1.358.215.532.322 1.12.322 1.764Zm-1.89 0c0-.644-.21-1.143-.63-1.498-.42-.364-1.022-.546-1.806-.546H7.386c-.784 0-1.386.182-1.806.546-.42.355-.63.854-.63 1.498s.21 1.148.63 1.512c.42.355 1.022.532 1.806.532h1.456c.784 0 1.386-.177 1.806-.532.42-.364.63-.868.63-1.512Zm-.168-4.81v-1.064a2.551 2.551 0 0 0-.588-.448 4.28 4.28 0 0 0-.938-.364 8.591 8.591 0 0 0-1.358-.238 18.359 18.359 0 0 0-1.89-.084H3.228v-7.014h7.882v-1.582h3.99v2.002H13v6.79h2.1v2.002h-3.99Zm0-7.084H5.104v2.814H6.63c.644 0 1.204.019 1.68.056.467.037.877.089 1.232.154.345.065.644.15.896.252a3.6 3.6 0 0 1 .63.336h.042v-3.612ZM13 11.388h-1.694v-1.26H4.922v1.26H3.228V6.74h1.694V8h6.384V6.74H13v4.648Zm0-6.043h-1.694v-1.26H4.922v1.26H3.228V.697h1.694v1.26h6.384V.697H13v4.648ZM2.346 4.547c0 .42-.084.714-.252.882a.914.914 0 0 1-.63.238h-.35a.864.864 0 0 1-.616-.238C.321 5.26.232 4.967.232 4.547s.089-.71.266-.868a.838.838 0 0 1 .616-.252h.35c.243 0 .453.084.63.252.168.159.252.448.252.868Zm0-3.08c0 .42-.084.714-.252.882a.914.914 0 0 1-.63.238h-.35a.864.864 0 0 1-.616-.238C.321 2.18.232 1.887.232 1.467S.321.757.498.599a.838.838 0 0 1 .616-.252h.35c.243 0 .453.084.63.252.168.159.252.448.252.868Z" fill="#687480"/></svg>