<svg width="58" height="63" fill="none" xmlns="http://www.w3.org/2000/svg"><circle cx="30" cy="30" r="30" fill="#f0f0f0"/><path d="M29.247 5.46V23.1h-3.351L17.1 12.39V23.1h-4.032V5.46h3.377l8.77 10.71V5.46h4.031Zm15.79 13.86h-8.19l-1.561 3.78h-4.184l7.863-17.64h4.032l7.887 17.64H46.6l-1.562-3.78Zm-1.284-3.1-2.797-6.753-2.798 6.753h5.595ZM26.98 48.3l-.025-10.584-5.191 8.72h-1.84l-5.166-8.493V48.3h-3.83V30.66h3.377l6.602 10.962 6.502-10.962h3.351l.05 17.64h-3.83Zm15.853.302c-2.52 0-4.486-.697-5.897-2.091-1.394-1.395-2.091-3.385-2.091-5.973V30.66h4.082v9.727c0 3.159 1.31 4.738 3.931 4.738 1.277 0 2.251-.378 2.923-1.134.672-.773 1.008-1.974 1.008-3.604V30.66h4.032v9.878c0 2.588-.705 4.578-2.116 5.973-1.395 1.394-3.352 2.091-5.872 2.091Z" fill="#0F0E08"/></svg>